<?xml version="1.0" encoding="utf-8"?>
<!-- Generator: Adobe Illustrator 23.0.4, SVG Export Plug-In . SVG Version: 6.00 Build 0)  -->
<svg version="1.1" id="Layer_1" xmlns="http://www.w3.org/2000/svg" xmlns:xlink="http://www.w3.org/1999/xlink" x="0px" y="0px"
	 viewBox="0 0 50 100" style="enable-background:new 0 0 50 100;" xml:space="preserve">
<style type="text/css">
	.st0{fill:#FF6CC9;}
	.st1{fill:#9022FF;}
</style>
<g>
	<path class="st0" d="M44,59c0.7-0.1,1.2-0.6,1.4-1.3c0.2-0.6,0-1.4-0.6-1.8c-4.5-3.8-10.1-5.9-16-5.9c-13.7,0-25,11.2-25,25
		s11.2,25,25,25c6.2,0,12.1-2.3,16.7-6.5c0.5-0.5,0.7-1.2,0.5-1.8c-0.2-0.6-0.8-1.1-1.5-1.2c-8-0.9-14-7.7-14-15.7
		C30.6,66.8,36.2,60.2,44,59L44,59z M27.1,74.7c0,8.5,5.5,15.8,13.3,18.4c-3.4,2.2-7.4,3.4-11.5,3.4C17,96.5,7.4,86.9,7.4,75.1
		s9.6-21.4,21.4-21.4c3.8,0,7.5,1,10.8,2.9C32.2,59.3,27.1,66.4,27.1,74.7z"/>
</g>
<g>
	<g>
		<g>
			<path class="st1" d="M33.9,16.1c-2.2-2.2-5.4-3.7-8.9-3.7s-6.6,1.4-8.9,3.7c-2.2,2.2-3.7,5.4-3.7,8.9s1.5,6.6,3.7,8.9
				s5.4,3.7,8.9,3.7s6.6-1.4,8.9-3.7c2.2-2.2,3.7-5.4,3.7-8.9S36.2,18.4,33.9,16.1z M31.5,31.5c-1.7,1.7-4,2.6-6.5,2.6
				s-4.8-1-6.5-2.6c-1.7-1.7-2.6-4-2.6-6.5s1-4.8,2.6-6.5c1.7-1.7,4-2.6,6.5-2.6s4.8,1,6.5,2.6c1.7,1.7,2.6,4,2.6,6.5
				S33.1,29.8,31.5,31.5z"/>
		</g>
	</g>
	<g>
		<g>
			<path class="st1" d="M48.3,23.3h-5.1c-0.9,0-1.7,0.8-1.7,1.7c0,0.9,0.8,1.7,1.7,1.7h5.1c0.9,0,1.7-0.8,1.7-1.7
				S49.2,23.3,48.3,23.3z"/>
		</g>
	</g>
	<g>
		<g>
			<path class="st1" d="M25,41.5c-0.9,0-1.7,0.8-1.7,1.7v5.1c0,0.9,0.8,1.7,1.7,1.7c0.9,0,1.7-0.8,1.7-1.7v-5.1
				C26.7,42.3,25.9,41.5,25,41.5z"/>
		</g>
	</g>
	<g>
		<g>
			<path class="st1" d="M42.7,40.3L39,36.6c-0.6-0.7-1.7-0.7-2.4,0s-0.7,1.7,0,2.4l3.6,3.6c0.7,0.7,1.7,0.7,2.4,0
				C43.3,42,43.3,40.9,42.7,40.3z"/>
		</g>
	</g>
	<g>
		<g>
			<path class="st1" d="M25,0c-0.9,0-1.7,0.8-1.7,1.7v5.1c0,0.9,0.8,1.7,1.7,1.7c0.9,0,1.7-0.8,1.7-1.7V1.7C26.7,0.8,25.9,0,25,0z"
				/>
		</g>
	</g>
	<g>
		<g>
			<path class="st1" d="M42.7,7.3c-0.7-0.7-1.7-0.7-2.4,0L36.7,11c-0.7,0.7-0.7,1.7,0,2.4c0.6,0.7,1.7,0.7,2.4,0l3.6-3.6
				C43.4,9.1,43.4,8,42.7,7.3z"/>
		</g>
	</g>
	<g>
		<g>
			<path class="st1" d="M6.8,23.3H1.7C0.8,23.3,0,24.1,0,25s0.7,1.7,1.7,1.7h5.1c0.9,0,1.7-0.8,1.7-1.7S7.7,23.3,6.8,23.3z"/>
		</g>
	</g>
	<g>
		<g>
			<path class="st1" d="M13.3,36.6c-0.6-0.7-1.7-0.7-2.4,0l-3.6,3.6c-0.7,0.7-0.7,1.7,0,2.4c0.7,0.7,1.7,0.7,2.4,0l3.6-3.6
				C14,38.4,14,37.3,13.3,36.6z"/>
		</g>
	</g>
	<g>
		<g>
			<path class="st1" d="M13.3,11L9.7,7.3C9,6.7,7.9,6.7,7.3,7.3C6.6,8,6.6,9.1,7.3,9.7l3.6,3.6c0.7,0.7,1.7,0.7,2.4,0
				C14,12.7,14,11.6,13.3,11z"/>
		</g>
	</g>
</g>
</svg>
